<svg xmlns="http://www.w3.org/2000/svg" version="1.1" xmlns:xlink="http://www.w3.org/1999/xlink" xmlns:svgjs="http://svgjs.dev/svgjs" width="1500" height="1500" viewBox="0 0 1500 1500"><rect width="1500" height="1500" fill="#000000"></rect><g transform="matrix(0.6666666666666666,0,0,0.6666666666666666,251.6857517310968,581.5629090647664)"><svg viewBox="0 0 396 133" data-background-color="#f9f6ed" preserveAspectRatio="xMidYMid meet" height="503" width="1500" xmlns="http://www.w3.org/2000/svg" xmlns:xlink="http://www.w3.org/1999/xlink"><g id="tight-bounds" transform="matrix(1,0,0,1,0.2897766852828454,0.30556588783124994)"><svg viewBox="0 0 395.52 132.3888682243375" height="132.3888682243375" width="395.52"><g><svg viewBox="0 0 663.9755690012794 222.2465971599158" height="132.3888682243375" width="395.52"><g transform="matrix(1,0,0,1,268.4555690012794,60.240936541293586)"><svg viewBox="0 0 395.52 101.76472407732864" height="101.76472407732864" width="395.52"><g id="textblocktransform"><svg viewBox="0 0 395.52 101.76472407732864" height="101.76472407732864" width="395.52" id="textblock"><g><svg viewBox="0 0 395.52 101.76472407732864" height="101.76472407732864" width="395.52"><g transform="matrix(1,0,0,1,0,0)"><svg width="395.52" viewBox="4.35 -35.16 138.9 35.75" height="101.76472407732864" data-palette-color="#21272d"><path d="M32.98-35.11L32.98 0.24 27.61 0.24 8.94-29.1 8.94 0 4.35 0 4.35-35.11 9.72-35.11 28.39-5.76 28.39-35.11 32.98-35.11ZM41.67-35.11L52.73-35.11Q55.22-35.11 57.41-34.73 59.59-34.35 61.23-33.4 62.86-32.45 63.82-30.81 64.77-29.17 64.77-26.64L64.77-26.64Q64.77-25.12 64.43-23.95 64.08-22.78 63.46-21.88 62.84-20.97 61.94-20.32 61.03-19.68 59.93-19.24L59.93-19.24 59.93-19.19Q61.28-18.85 62.51-18.14 63.74-17.43 64.67-16.33 65.6-15.23 66.15-13.73 66.7-12.23 66.7-10.33L66.7-10.33Q66.7-7.57 65.72-5.62 64.74-3.66 63.02-2.42 61.3-1.17 58.97-0.59 56.64 0 53.93 0L53.93 0 41.67 0 41.67-35.11ZM46.26-20.68L52.66-20.68Q54.42-20.68 55.81-20.97 57.2-21.26 58.16-21.96 59.13-22.66 59.65-23.82 60.18-24.98 60.18-26.68L60.18-26.68Q60.18-28.15 59.57-29.1 58.96-30.05 57.91-30.59L57.91-30.59Q56.86-31.13 55.49-31.34 54.12-31.54 52.66-31.54L52.66-31.54 46.26-31.54 46.26-20.68ZM46.26-3.56L53.93-3.56Q55.64-3.56 57.14-4 58.64-4.44 59.74-5.3 60.84-6.15 61.47-7.42 62.11-8.69 62.11-10.35L62.11-10.35Q62.11-12.01 61.47-13.27 60.84-14.53 59.74-15.38 58.64-16.24 57.14-16.67 55.64-17.11 53.93-17.11L53.93-17.11 46.26-17.11 46.26-3.56ZM74.58-20.9L74.58-20.9 73.51-24.32Q77.61-25.95 82.1-25.95L82.1-25.95Q86.03-25.95 88.11-24.63L88.11-24.63Q90.47-23.12 90.47-19.48L90.47-19.48 90.47-9.5Q90.47-7.5 90.52-5.4L90.52-5.4Q90.55-4.15 90.77-2.81L90.77-2.81Q90.96-1.54 91.28-0.39L91.28-0.39 87.28 0.49Q86.71-1.15 86.57-3.17L86.57-3.17 86.08-3.22Q83.05 0.59 78.36 0.59L78.36 0.59Q74.95 0.59 72.87-1.31 70.8-3.2 70.8-6.64L70.8-6.64Q70.8-9.2 71.93-10.84 73.07-12.48 75.14-13.6L75.14-13.6Q78.41-15.38 84.3-15.38L84.3-15.38Q85.08-15.38 86.4-15.33L86.4-15.33 86.4-19.04Q86.4-20.8 85.32-21.58 84.25-22.36 81.95-22.36L81.95-22.36Q78.61-22.36 74.58-20.9ZM86.4-7.13L86.4-7.13 86.4-12.26Q85.74-12.3 84.47-12.3L84.47-12.3Q82.32-12.3 80.51-11.94L80.51-11.94Q77.83-11.4 76.35-10.24 74.87-9.08 74.87-6.91L74.87-6.91Q74.87-3 79.12-3L79.12-3Q81.32-3 83.22-4.17L83.22-4.17Q84.79-5.15 86.4-7.13ZM115.2-4.32L116.25-0.9Q114.35-0.24 112.19 0.17 110.03 0.59 108.1 0.59L108.1 0.59Q105.17 0.59 103.02-0.27 100.87-1.12 99.47-2.76 98.06-4.39 97.38-6.77 96.7-9.16 96.7-12.21L96.7-12.21Q96.7-15.53 97.54-18.09 98.38-20.65 99.98-22.4 101.58-24.15 103.89-25.05 106.19-25.95 109.12-25.95L109.12-25.95Q110.61-25.95 112.15-25.65 113.69-25.34 115.28-24.88L115.28-24.88 114.23-21.46Q112.96-21.88 111.87-22.12 110.78-22.36 109.59-22.36L109.59-22.36Q105.44-22.36 103.19-19.96 100.94-17.55 100.94-12.7L100.94-12.7Q100.94-10.42 101.27-8.63 101.6-6.84 102.45-5.58 103.29-4.32 104.74-3.66 106.19-3 108.44-3L108.44-3Q109.9-3 111.6-3.38 113.3-3.76 115.2-4.32L115.2-4.32ZM122.28 0L122.28-35.16 126.48-35.16 126.48-14.01 137.91-25.95 140.66-23.27 130.78-13.09 143.25 0 138.03 0 126.48-12.21 126.48 0 122.28 0Z" opacity="1" transform="matrix(1,0,0,1,0,0)" fill="#ffffff" class="wordmark-text-0" data-fill-palette-color="primary" id="text-0"></path></svg></g></svg></g></svg></g></svg></g><g><svg viewBox="0 0 244.43135999999998 222.2465971599158" height="222.2465971599158" width="244.43135999999998"><g><svg xmlns="http://www.w3.org/2000/svg" xmlns:xlink="http://www.w3.org/1999/xlink" version="1.1" x="0" y="0" viewBox="3.876 7.682 93.124 84.672" enable-background="new 0 0 100 100" xml:space="preserve" height="222.2465971599158" width="244.43135999999998" class="icon-icon-0" data-fill-palette-color="accent" id="icon-0"><path fill="#ffffff" d="M97 41.602C97 36.269 94.151 31.323 89.481 28.409 87.002 18.272 77.438 11.046 66.237 11.046 63.542 11.046 60.911 11.464 58.391 12.292 55.266 9.341 51.059 7.682 46.568 7.682 41.38 7.682 36.459 9.997 33.311 13.827 32.613 13.744 31.911 13.702 31.211 13.702 23.607 13.702 17.102 18.436 15.09 25.188 8.406 27.376 3.876 33.296 3.876 40.113 3.876 42.134 4.292 44.15 5.089 46.02A15.1 15.1 0 0 0 3.876 51.926C3.876 57.789 7.241 63.084 12.69 65.852 15.818 68.797 20.105 70.477 24.531 70.477 27.358 70.477 30.069 69.828 32.501 68.579 35.657 72.035 40.317 74.1 45.217 74.1 48.272 74.1 51.185 73.343 53.759 71.895 56.609 73.983 60.012 75.328 63.599 75.768 69.646 81.836 74.287 89.675 74.333 89.757L75.858 92.354 83.516 86.864 79.253 74.645C81.654 73.533 83.641 71.714 84.899 69.434 90.13 66.658 93.461 61.344 93.461 55.639 93.461 54.36 93.3 53.098 92.982 51.87 95.554 49.024 97 45.37 97 41.602M81.709 64.877L80.755 65.313 80.333 66.274C79.448 68.287 77.532 69.758 75.211 70.212L72.095 70.819 76.159 82.468C73.938 79.259 70.612 74.876 66.744 71.147L66.028 70.458 65.038 70.385A15.7 15.7 0 0 1 58.413 68.357L66.331 62.099C68.393 60.468 71.172 59.758 72.108 60.009L75.737 60.974 77.1 55.838 73.47 54.874C70.28 54.024 65.712 55.817 63.036 57.931L54.144 64.956 54.123 64.936 52.301 66.291C50.275 67.801 47.949 68.6 45.339 68.6 41.612 68.6 38.167 66.865 36.167 64.049V56.083C36.167 53.951 37.159 51.915 37.744 51.562L40.713 49.728 37.833 45.023 34.788 46.855C33.363 47.716 32.261 49.24 31.526 50.948A12.5 12.5 0 0 0 29.544 49.447L20.637 44.048 17.784 48.751 26.564 54.15C28.697 55.443 30.167 58.254 30.167 59.902V63.441C28.167 64.443 26.519 64.976 24.405 64.976 21.263 64.976 18.301 63.754 16.173 61.627L15.868 61.291 15.454 61.088C11.694 59.304 9.366 55.792 9.366 51.924 9.366 50.315 9.767 48.771 10.55 47.333L11.268 46.017 10.552 44.702A9.5 9.5 0 0 1 9.373 40.112C9.373 35.331 12.913 31.21 17.98 30.091L19.78 29.693 20.096 27.877C20.971 22.849 25.644 19.2 31.209 19.2 32.116 19.2 33.028 19.302 33.919 19.504L35.804 19.93 36.844 18.301C38.859 15.143 42.585 13.181 46.567 13.181 49.147 13.181 51.573 13.978 53.537 15.409L51.492 17.317 51.457 17.279 50.024 18.615C48.095 20.091 45.732 20.866 44.831 20.73L40.932 20.143 40.115 25.582 44.011 26.168C44.141 26.188 44.28 26.186 44.413 26.197 43.784 28.162 43.558 30.257 43.876 32.11L44.773 37.336 50.194 36.404 49.297 31.179C48.959 29.21 49.954 26.201 51.388 24.866L53.642 22.762C53.952 22.517 54.246 22.269 54.515 22.019L58.831 17.992A19.5 19.5 0 0 1 66.233 16.545C75.242 16.545 82.856 22.487 84.339 30.674L84.579 32.002 85.775 32.624C89.302 34.458 91.495 37.898 91.495 41.602 91.495 43.542 90.904 45.388 89.818 46.994L88.964 46.14H88.965L85.402 42.577C83.853 41.029 82.269 37.603 82.009 35.247L81.421 29.894 76.142 30.474 76.73 35.827C76.898 37.362 77.418 39.1 78.129 40.774 77.776 40.731 77.424 40.684 77.085 40.668L65.14 40.101 64.887 45.407 76.84 45.973C79.286 46.089 82.866 47.547 84.353 49.032L87.187 51.867 87.29 52.122A9.5 9.5 0 0 1 87.963 55.639C87.961 59.578 85.565 63.118 81.709 64.877" data-fill-palette-color="accent"></path></svg></g></svg></g></svg></g><defs></defs></svg><rect width="395.52" height="132.3888682243375" fill="none" stroke="none" visibility="hidden"></rect></g></svg></g></svg>